HIERARCHY
ROOT Hips
{
	OFFSET 0.000000 0.000000 0.000000
	CHANNELS 6 Xposition Yposition Zposition Zrotation Yrotation Xrotation 
	JOINT LeftUpLeg_virtual
	{
		OFFSET 0.000000 0.000000 0.000000
		CHANNELS 3 Zrotation Yrotation Xrotation
		JOINT LeftUpLeg
		{
			OFFSET 8.479694 -4.795517 -0.379053
			CHANNELS 3 Zrotation Yrotation Xrotation
			JOINT LeftLeg
			{
				OFFSET 0.485052 -32.551468 0.112863
				CHANNELS 3 Zrotation Yrotation Xrotation
				JOINT LeftFoot
				{
					OFFSET 0.438033 -32.635670 -3.012641
					CHANNELS 3 Zrotation Yrotation Xrotation
					JOINT LeftToeBase
					{
						OFFSET 0.970169 -13.225353 11.864223
						CHANNELS 3 Zrotation Yrotation Xrotation
						End Site
						{
							OFFSET 0.000000 0.000000 0.000000
						}
					}
				}
			}
		}
	}
	JOINT RightUpLeg_virtual
	{
		OFFSET 0.000000 0.000000 0.000000
		CHANNELS 3 Zrotation Yrotation Xrotation
		JOINT RightUpLeg
		{
			OFFSET -8.479694 -4.795517 -0.379053
			CHANNELS 3 Zrotation Yrotation Xrotation
			JOINT RightLeg
			{
				OFFSET -0.484100 -32.551483 0.112903
				CHANNELS 3 Zrotation Yrotation Xrotation
				JOINT RightFoot
				{
					OFFSET -0.438985 -32.635651 -3.012681
					CHANNELS 3 Zrotation Yrotation Xrotation
					JOINT RightToeBase
					{
						OFFSET -0.970169 -13.225354 11.864223
						CHANNELS 3 Zrotation Yrotation Xrotation
						End Site
						{
							OFFSET 0.000000 0.000000 0.000000
						}
					}
				}
			}
		}
	}
	JOINT Spine_virtual
	{
		OFFSET 0.000000 0.000000 0.000000
		CHANNELS 3 Zrotation Yrotation Xrotation
		JOINT Spine
		{
			OFFSET 0.000000 7.722015 1.166203
			CHANNELS 3 Zrotation Yrotation Xrotation
			JOINT Spine1
			{
				OFFSET 0.000000 12.024086 0.248766
				CHANNELS 3 Zrotation Yrotation Xrotation
				JOINT Spine2
				{
					OFFSET -0.000000 11.503036 -0.491240
					CHANNELS 3 Zrotation Yrotation Xrotation
					JOINT Neck_virtual
					{
						OFFSET 0.000000 0.000000 0.000000
						CHANNELS 3 Zrotation Yrotation Xrotation
						JOINT Neck
						{
							OFFSET 0.000000 18.430687 -3.123054
							CHANNELS 3 Zrotation Yrotation Xrotation
							JOINT Head
							{
								OFFSET -0.000000 9.051071 1.034021
								CHANNELS 3 Zrotation Yrotation Xrotation
								End Site
								{
									OFFSET 0.000000 0.000000 0.000000
								}
							}
						}
					}
					JOINT LeftShoulder_virtual
					{
						OFFSET 0.000000 0.000000 0.000000
						CHANNELS 3 Zrotation Yrotation Xrotation
						JOINT LeftShoulder
						{
							OFFSET 6.197824 13.665230 -4.064723
							CHANNELS 3 Zrotation Yrotation Xrotation
							JOINT LeftArm
							{
								OFFSET 7.778132 -0.187073 -1.709282
								CHANNELS 3 Zrotation Yrotation Xrotation
								JOINT LeftForeArm
								{
									OFFSET 21.954697 0.000000 -2.041093
									CHANNELS 3 Zrotation Yrotation Xrotation
									JOINT LeftHand
									{
										OFFSET 22.992908 0.000000 -0.870901
										CHANNELS 3 Zrotation Yrotation Xrotation
										End Site
										{
											OFFSET 0.000000 0.000000 0.000000
										}
									}
								}
							}
						}
					}
					JOINT RightShoulder_virtual
					{
						OFFSET 0.000000 0.000000 0.000000
						CHANNELS 3 Zrotation Yrotation Xrotation
						JOINT RightShoulder
						{
							OFFSET -6.197824 13.665230 -4.064723
							CHANNELS 3 Zrotation Yrotation Xrotation
							JOINT RightArm
							{
								OFFSET -7.778132 -0.187073 -1.709282
								CHANNELS 3 Zrotation Yrotation Xrotation
								JOINT RightForeArm
								{
									OFFSET -21.954697 0.000000 -2.041093
									CHANNELS 3 Zrotation Yrotation Xrotation
									JOINT RightHand
									{
										OFFSET -22.992908 0.000000 -0.870901
										CHANNELS 3 Zrotation Yrotation Xrotation
										End Site
										{
											OFFSET 0.000000 0.000000 0.000000
										}
									}
								}
							}
						}
					}
				}
			}
		}
	}
}
MOTION
Frames: 11
Frame Time: 0.033333
17.017761 79.463669 52.826004 -179.307834 7.086008 179.983872 -6.038671 -1.277661 8.164308 -9.950909 2.426502 -32.777385 7.130338 6.968782 33.446446 0.806347 -14.306300 -6.564568 0.000000 0.000000 0.000000 -0.999204 0.330357 5.971400 7.627846 13.954914 -20.304932 0.046953 7.752231 31.613029 7.325782 7.320122 -18.556635 0.000000 0.000000 0.000000 -0.405369 0.980132 -4.577089 1.791225 -0.332206 -9.268952 0.394011 -2.731722 6.080350 -0.126165 -0.228823 -0.067624 -0.130327 -1.161746 7.716115 -1.020458 3.987134 4.445438 0.000000 0.000000 0.000000 1.448125 -0.646514 4.398152 8.955922 7.138152 3.200268 -24.795354 -0.383723 -2.557531 -170.469542 -83.275736 -162.499735 0.000000 0.000000 0.000000 -2.923027 1.110502 3.280026 9.730598 -5.431711 1.033412 21.007591 -3.803410 -19.039934 177.414669 58.833282 170.887481 0.000000 0.000000 0.000000 
17.672495 79.471100 52.363941 -179.223194 7.078573 -179.980935 -6.092207 -0.965549 8.449081 -10.275235 3.070659 -32.733863 7.518743 7.688455 33.373465 2.188485 -13.208394 -6.951639 0.000000 0.000000 0.000000 -0.771406 -0.105947 6.260936 7.964685 13.813258 -20.070183 0.140353 7.525140 31.248368 7.516815 7.361062 -18.518666 0.000000 0.000000 0.000000 -0.401170 1.043563 -4.444195 1.522037 -0.308440 -9.288769 0.438858 -2.684484 6.093791 -0.113558 -0.199804 -0.026064 -0.199232 -1.188324 7.674494 -1.322535 4.089913 4.248009 0.000000 0.000000 0.000000 1.405428 -0.651397 4.442988 8.991629 6.987080 2.906516 -25.832633 -0.512732 -2.295562 -170.872564 -83.471175 -162.023972 0.000000 0.000000 0.000000 -2.879595 1.038460 3.293469 9.090707 -5.295523 1.162099 21.327448 -3.815744 -18.161043 177.438343 59.020949 170.878479 0.000000 0.000000 0.000000 
18.314451 79.518295 51.956375 -179.364142 7.278419 179.980293 -5.869001 -0.770853 8.604112 -10.109278 2.691915 -32.585067 7.685513 7.388777 33.464133 2.587619 -13.246687 -7.550136 0.000000 0.000000 0.000000 -0.662938 -0.681445 6.525380 8.136663 13.527050 -19.813718 0.109416 7.230637 30.931014 7.799697 7.518566 -18.274364 0.000000 0.000000 0.000000 -0.504617 1.225749 -4.282108 1.176480 -0.192039 -9.262729 0.501015 -2.646939 6.091275 -0.080169 -0.171102 -0.024262 -0.206542 -1.356804 7.743000 -1.633928 4.171115 4.109883 0.000000 0.000000 0.000000 1.423479 -0.686535 4.460530 9.007762 6.854765 2.977732 -27.183364 -0.265603 -2.061298 -172.831462 -83.648002 -160.048940 0.000000 0.000000 0.000000 -2.873515 1.144270 3.305216 8.457332 -5.114670 1.206537 21.403472 -3.871067 -17.334781 177.623031 59.232712 171.031967 0.000000 0.000000 0.000000 
18.928087 79.581474 51.596474 -179.435626 7.403237 179.983667 -5.650421 -0.661523 8.717689 -9.990304 2.315351 -32.455235 7.881252 7.072061 33.640399 2.808018 -13.330623 -8.033120 0.000000 0.000000 0.000000 -0.613914 -0.999856 6.783018 8.319840 13.211177 -19.594255 0.414477 6.972819 30.655774 7.855040 7.350539 -17.950217 0.000000 0.000000 0.000000 -0.495845 1.455118 -4.101052 0.875789 -0.119296 -9.202859 0.540057 -2.646359 6.059424 -0.069442 -0.285088 -0.044636 -0.132303 -1.171949 7.746129 -1.885058 4.162485 3.851266 0.000000 0.000000 0.000000 1.476579 -0.565553 4.485059 9.009385 6.713586 2.882000 -28.859455 0.119009 -1.822860 -173.807141 -83.888459 -159.174540 0.000000 0.000000 0.000000 -2.745091 1.122138 3.451490 7.537302 -4.881497 0.912165 21.382042 -3.715831 -16.675620 177.401118 59.410652 170.809357 0.000000 0.000000 0.000000 
19.507149 79.644638 51.274708 -179.477960 7.542755 -179.966674 -5.471198 -0.687100 8.822016 -9.919099 1.936925 -32.326169 8.085663 6.775842 33.765949 2.861077 -13.447701 -8.381010 0.000000 0.000000 0.000000 -0.325349 -1.351166 6.999195 8.136609 13.137595 -19.495409 0.975190 6.822713 30.493564 7.780774 7.081939 -17.611909 0.000000 0.000000 0.000000 -0.417685 1.374542 -3.903474 0.581068 0.026590 -9.160588 0.594550 -2.533583 6.017224 -0.086801 -0.103160 -0.038555 -0.014895 -1.097030 7.728251 -2.051723 4.000104 3.627029 0.000000 0.000000 0.000000 1.561423 -0.461279 4.558132 8.952999 6.442362 2.761855 -30.806018 0.565723 -1.506001 -173.468172 -84.109641 -159.805799 0.000000 0.000000 0.000000 -2.619540 1.178276 3.457614 6.671844 -4.683784 0.822369 21.111913 -3.640658 -16.187118 177.726686 59.566749 171.156317 0.000000 0.000000 0.000000 
20.038427 79.681923 51.004276 -179.549704 7.675154 179.981413 -5.318128 -0.766585 8.936847 -9.850684 1.531351 -32.201511 8.302620 6.502073 33.902184 2.801202 -13.574719 -8.694482 0.000000 0.000000 0.000000 -0.139916 -1.687992 7.232248 8.175987 12.836144 -19.457558 1.373765 6.897906 30.478582 7.787506 6.976848 -17.368266 0.000000 0.000000 0.000000 -0.376006 1.402650 -3.656742 0.321873 0.158076 -9.059800 0.702230 -2.472817 5.952661 -0.006419 -0.073049 -0.027425 0.071195 -1.063377 7.570859 -2.280940 3.849663 3.269257 0.000000 0.000000 0.000000 1.557577 -0.436669 4.436498 8.728937 6.161132 2.658169 -33.127555 1.125303 -1.016781 -175.932778 -84.489536 -157.864250 0.000000 0.000000 0.000000 -2.585925 1.239301 3.528170 5.728665 -4.449754 0.853212 20.717693 -3.598289 -16.130999 178.091910 59.742825 171.603981 0.000000 0.000000 0.000000 
20.517548 79.690887 50.779877 -179.683234 7.677497 179.965690 -5.178842 -0.898090 9.027009 -9.798475 1.244408 -32.156749 8.555621 6.243710 34.138563 2.674225 -13.677963 -8.991720 0.000000 0.000000 0.000000 0.035236 -1.814005 7.405436 8.283816 12.466100 -19.503585 1.521544 7.070932 30.569068 7.718505 6.812158 -17.230354 0.000000 0.000000 0.000000 -0.359296 1.359100 -3.401586 0.026494 0.305399 -8.954462 0.768387 -2.394680 5.864577 0.003713 -0.030987 -0.022266 0.145224 -0.878474 7.502679 -2.504549 3.628730 3.010135 0.000000 0.000000 0.000000 1.639037 -0.389153 4.406710 8.537444 5.847984 2.446531 -35.846571 1.657194 -0.409469 -175.005675 -84.768235 -159.580021 0.000000 0.000000 0.000000 -2.464522 1.304754 3.494446 4.844056 -4.327105 0.768584 20.277206 -3.744108 -16.472347 178.353861 59.774004 171.964506 0.000000 0.000000 0.000000 
20.957733 79.677834 50.603050 -179.944749 7.683445 179.965116 -5.105692 -1.155166 9.070546 -9.785913 0.802016 -32.210178 8.872988 6.109782 34.466787 2.586071 -13.636815 -9.243743 0.000000 0.000000 0.000000 0.052292 -2.008503 7.523971 8.250623 12.124393 -19.613267 1.622891 6.719661 30.686322 7.798755 6.929815 -17.093754 0.000000 0.000000 0.000000 -0.393831 1.258765 -3.172509 -0.298437 0.468634 -8.851818 0.802492 -2.293114 5.746495 -0.016162 0.011087 -0.005863 0.361755 -0.628343 7.359332 -2.696645 3.373848 2.711967 0.000000 0.000000 0.000000 1.835819 -0.246676 4.364135 8.180138 5.448225 2.142496 -38.684098 2.047037 0.576080 -174.886843 -85.065129 -160.734268 0.000000 0.000000 0.000000 -2.198329 1.347762 3.468476 3.933602 -4.230991 0.601471 19.880685 -4.008994 -17.120528 178.537989 59.751437 172.292369 0.000000 0.000000 0.000000 
21.367836 79.649178 50.437492 179.963709 7.726389 179.967753 -4.991246 -1.407692 9.143394 -9.754109 0.655664 -32.269854 9.188696 5.863479 34.871094 2.397284 -13.701432 -9.650210 0.000000 0.000000 0.000000 0.189379 -1.977049 7.671848 8.287757 11.882586 -19.673298 1.535830 6.312865 30.820515 7.776392 6.904946 -17.043596 0.000000 0.000000 0.000000 -0.317798 1.182182 -2.907836 -0.540152 0.674390 -8.709011 0.917911 -2.161504 5.609485 0.053991 0.111870 -0.008982 0.425078 -0.643337 7.231697 -2.899068 3.024778 2.400298 0.000000 0.000000 0.000000 1.873063 -0.221491 4.256102 7.671608 4.913405 2.019810 -41.620127 2.110628 1.740250 -174.731320 -85.527834 -162.136793 0.000000 0.000000 0.000000 -2.161000 1.403934 3.373228 3.239577 -4.120303 0.698718 19.434099 -4.341938 -18.020522 179.230557 59.675902 173.172630 0.000000 0.000000 0.000000 
21.763556 79.624146 50.305965 179.829592 7.702651 179.972780 -4.971573 -1.763941 9.432506 -9.768908 0.654409 -32.595688 9.570151 5.737611 35.172927 2.314178 -13.559281 -10.007751 0.000000 0.000000 0.000000 0.290490 -2.107125 7.826362 8.307513 11.567572 -19.735265 1.548001 6.179182 30.940101 7.750863 6.861173 -16.956920 0.000000 0.000000 0.000000 -0.246550 1.008503 -2.643864 -0.799256 0.841690 -8.524485 1.017677 -2.053555 5.472658 0.087596 0.122740 -0.001025 0.551820 -0.544312 7.105348 -3.076269 2.666068 2.116440 0.000000 0.000000 0.000000 1.968167 -0.092642 4.152649 7.113347 4.244198 1.605085 -44.600787 2.123354 3.110816 -170.314660 -86.264196 -167.980211 0.000000 0.000000 0.000000 -2.023169 1.493614 3.316728 2.519315 -3.951859 0.641239 19.043387 -4.655965 -18.954215 179.401407 59.654988 173.545326 0.000000 0.000000 0.000000 
22.130882 79.603081 50.204716 179.800468 7.549743 179.968299 -4.940750 -2.075385 9.658214 -9.639392 0.245713 -32.782903 9.966423 5.554907 35.365439 2.222646 -13.392196 -10.374386 0.000000 0.000000 0.000000 0.422192 -2.326754 8.001215 8.350019 11.234093 -19.828907 1.569296 6.098844 30.976704 7.679969 6.733551 -16.912522 0.000000 0.000000 0.000000 -0.085800 0.843738 -2.366354 -0.995071 0.924596 -8.264169 1.095011 -2.001388 5.343510 0.033498 0.056390 -0.011215 0.725951 -0.220467 6.964445 -3.206952 2.273012 1.800513 0.000000 0.000000 0.000000 2.153105 -0.030636 4.054848 6.408013 3.610805 1.426820 -47.466096 1.663939 4.777637 -171.751554 -87.613289 -168.056053 0.000000 0.000000 0.000000 -1.795594 1.598537 3.252152 1.796102 -3.693157 0.555811 18.884039 -4.882871 -19.595621 -179.919081 59.748214 174.425860 0.000000 0.000000 0.000000 
